HIERARCHY
ROOT Hips
{
	OFFSET 0.000000 0.000000 0.000000
	CHANNELS 6 Xposition Yposition Zposition Xrotation Yrotation Zrotation
	JOINT LeftUpLeg_virtual
	{
		OFFSET 0.000000 0.000000 0.000000
		CHANNELS 3 Xrotation Yrotation Zrotation
		JOINT LeftUpLeg
		{
			OFFSET 10.205400 -3.823500 0.155100
			CHANNELS 3 Xrotation Yrotation Zrotation
			JOINT LeftLeg
			{
				OFFSET 0.708757 -12.982077 0.567790
				CHANNELS 3 Xrotation Yrotation Zrotation
				JOINT LeftFoot
				{
					OFFSET -0.708756 -10.717838 -2.184338
					CHANNELS 3 Xrotation Yrotation Zrotation
					JOINT LeftToeBase
					{
						OFFSET 0.108149 -7.191104 7.560241
						CHANNELS 3 Xrotation Yrotation Zrotation
						JOINT LeftToe_End
						{
							OFFSET 0.070230 0.081724 4.490308
							CHANNELS 3 Xrotation Yrotation Zrotation
							End Site
							{
								OFFSET 0 0 0
							}
						}
					}
				}
			}
		}
	}
	JOINT RightUpLeg_virtual
	{
		OFFSET 0.000000 0.000000 0.000000
		CHANNELS 3 Xrotation Yrotation Zrotation
		JOINT RightUpLeg
		{
			OFFSET -10.205400 -3.823500 0.005500
			CHANNELS 3 Xrotation Yrotation Zrotation
			JOINT RightLeg
			{
				OFFSET -0.708756 -12.982134 0.610632
				CHANNELS 3 Xrotation Yrotation Zrotation
				JOINT RightFoot
				{
					OFFSET 0.708754 -10.717769 -1.945823
					CHANNELS 3 Xrotation Yrotation Zrotation
					JOINT RightToeBase
					{
						OFFSET -0.108140 -7.191069 7.372968
						CHANNELS 3 Xrotation Yrotation Zrotation
						JOINT RightToe_End
						{
							OFFSET -0.070227 0.081735 4.479403
							CHANNELS 3 Xrotation Yrotation Zrotation
							End Site
							{
								OFFSET 0 0 0
							}
						}
					}
				}
			}
		}
	}
	JOINT Spine_virtual
	{
		OFFSET 0.000000 0.000000 0.000000
		CHANNELS 3 Xrotation Yrotation Zrotation
		JOINT Spine
		{
			OFFSET 0.000000 6.876099 0.125700
			CHANNELS 3 Xrotation Yrotation Zrotation
			JOINT Spine1
			{
				OFFSET 0.000000 5.730043 0.104720
				CHANNELS 3 Xrotation Yrotation Zrotation
				JOINT Spine1_split
				{
					OFFSET 0.000000 5.730043 0.104720
					CHANNELS 3 Xrotation Yrotation Zrotation
					JOINT Spine2
					{
						OFFSET 0.000000 5.730043 0.104720
						CHANNELS 3 Xrotation Yrotation Zrotation
						JOINT Neck_virtual
						{
							OFFSET 0.000000 0.000000 0.000000
							CHANNELS 3 Xrotation Yrotation Zrotation
							JOINT Neck
							{
								OFFSET 0.000000 10.314075 0.188496
								CHANNELS 3 Xrotation Yrotation Zrotation
								JOINT Head
								{
									OFFSET 0.000000 7.643700 -2.377400
									CHANNELS 3 Xrotation Yrotation Zrotation
									JOINT HeadTop_End
									{
										OFFSET 0.000000 43.788605 -13.619600
										CHANNELS 3 Xrotation Yrotation Zrotation
										End Site
										{
											OFFSET 0 0 0
										}
									}
								}
							}
						}
						JOINT LeftShoulder_virtual
						{
							OFFSET 0.000000 0.000000 0.000000
							CHANNELS 3 Xrotation Yrotation Zrotation
							JOINT LeftShoulder
							{
								OFFSET 2.196100 4.412489 0.087492
								CHANNELS 3 Xrotation Yrotation Zrotation
								JOINT LeftShoulder_split
								{
									OFFSET 2.196100 4.412489 0.087492
									CHANNELS 3 Xrotation Yrotation Zrotation
									JOINT LeftArm
									{
										OFFSET 8.771219 -2.981674 -0.026999
										CHANNELS 3 Xrotation Yrotation Zrotation
										JOINT LeftForeArm
										{
											OFFSET 8.512804 0.000000 -0.000000
											CHANNELS 3 Xrotation Yrotation Zrotation
											JOINT LeftHand
											{
												OFFSET 18.484802 0.000000 -0.000000
												CHANNELS 3 Xrotation Yrotation Zrotation
												End Site
												{
													OFFSET 0 0 0
												}
											}
										}
									}
								}
							}
						}
						JOINT RightShoulder_virtual
						{
							OFFSET 0.000000 0.000000 0.000000
							CHANNELS 3 Xrotation Yrotation Zrotation
							JOINT RightShoulder
							{
								OFFSET -2.196100 4.412496 0.070690
								CHANNELS 3 Xrotation Yrotation Zrotation
								JOINT RightShoulder_split
								{
									OFFSET -2.196100 4.412496 0.070690
									CHANNELS 3 Xrotation Yrotation Zrotation
									JOINT RightArm
									{
										OFFSET -8.771282 -2.981682 -0.094208
										CHANNELS 3 Xrotation Yrotation Zrotation
										JOINT RightForeArm
										{
											OFFSET -8.494598 0.000000 0.000000
											CHANNELS 3 Xrotation Yrotation Zrotation
											JOINT RightHand
											{
												OFFSET -18.483803 0.000000 0.000001
												CHANNELS 3 Xrotation Yrotation Zrotation
												End Site
												{
													OFFSET 0 0 0
												}
											}
										}
									}
								}
							}
						}
					}
				}
			}
		}
	}
}
MOTION
Frames: 7
Frame Time: 0.03333333
0.556741 26.900345 -3.319054 0.000000 0.000000 0.000000 3.833418 -77.585908 4.557350 -41.200271 13.831977 57.137794 35.814951 -20.403653 -3.354660 13.624345 18.414356 -47.335919 -0.938031 -5.575736 -5.592800 0.000000 0.000000 0.000000 2.878578 -77.963843 3.442803 -31.085509 6.394745 -26.921095 50.863763 21.662261 -8.758845 -21.684015 -16.438674 44.757065 1.459269 6.910910 -10.788102 0.000000 0.000000 0.000000 5.116086 -72.866179 4.606962 0.192872 4.306231 1.980674 5.171020 0.086116 -2.899062 0.180196 -0.872179 0.198269 0.000000 0.000000 0.000000 10.482936 1.772619 -1.702288 -14.120573 22.480354 10.747986 16.534722 -9.983579 -10.960201 0.000000 0.000000 0.000000 9.869003 -0.216361 -1.427867 4.464968 -0.860265 -6.368897 4.481020 -7.503961 -3.606245 -64.154444 -14.377410 -14.057523 9.108586 -11.834671 13.058971 0.000000 0.000000 0.000000 6.509486 -0.709481 -1.799772 -5.191297 16.668822 2.657925 13.239111 -0.141924 8.103274 -12.389449 68.705604 25.018607 112.752572 76.771934 -112.461284 0.000000 0.000000 0.000000 
0.572124 26.891363 -3.308670 0.000000 0.000000 0.000000 5.381143 -77.554633 5.800411 -40.399346 13.706188 57.258982 36.446839 -20.997658 -3.225294 12.705945 18.753198 -46.984035 -1.252530 -5.619322 -5.395132 0.000000 0.000000 0.000000 3.289937 -77.533350 3.824441 -31.547052 6.621784 -26.975796 50.274331 21.816335 -8.285304 -21.289963 -16.316818 44.750071 0.997004 7.054934 -10.795169 0.000000 0.000000 0.000000 5.689878 -72.883426 5.399575 -0.324542 4.182092 1.985095 4.776939 -0.036768 -2.847886 0.100430 -0.749998 0.205634 0.000000 0.000000 0.000000 10.210469 1.504627 -1.387965 -13.210062 22.780539 10.591814 16.523652 -10.390927 -12.221161 0.000000 0.000000 0.000000 9.089082 -0.278695 -1.463060 4.504707 0.100843 -8.242054 5.224176 -6.750741 -3.093353 -63.500139 -14.218620 -15.388599 10.193112 -12.049027 13.731977 0.000000 0.000000 0.000000 6.081123 -0.876981 -1.863707 -5.401134 16.467171 2.601975 13.355804 -2.184079 7.321667 -13.836181 68.552191 27.169386 115.373288 76.968145 -115.369845 0.000000 0.000000 0.000000 
0.523508 26.986736 -3.321570 0.000000 0.000000 0.000000 7.389927 -77.772420 7.622336 -39.372434 13.616667 57.132234 36.707332 -21.067884 -3.039538 12.556078 19.417958 -47.215438 -1.564413 -5.585973 -5.505080 0.000000 0.000000 0.000000 4.586796 -77.380784 5.103327 -32.385704 6.659670 -27.120743 49.491062 21.984673 -7.635087 -20.654203 -15.503302 44.251194 1.578538 7.198860 -11.101491 0.000000 0.000000 0.000000 6.283652 -73.341301 6.140454 -0.939020 4.142147 1.972276 4.522167 -0.194275 -2.644810 0.110569 -0.657136 0.169146 0.000000 0.000000 0.000000 9.953438 1.177349 -0.943121 -12.110994 23.046038 10.448697 14.445594 -9.082946 -15.052057 0.000000 0.000000 0.000000 8.097948 -0.400246 -1.426080 4.370182 0.620409 -10.842453 5.688337 -6.343771 -1.554011 -60.803232 -13.314779 -17.329122 10.802119 -13.691368 13.821687 0.000000 0.000000 0.000000 5.706825 -1.044731 -1.710393 -5.737849 15.124132 2.582060 12.469357 -3.027879 6.464672 -12.775667 68.415341 27.916373 110.126862 78.073024 -110.059353 0.000000 0.000000 0.000000 
0.422929 27.205318 -3.326896 0.000000 0.000000 0.000000 9.250374 -78.152309 9.495299 -37.832274 13.820118 56.418677 35.896401 -20.407634 -2.909336 12.855393 20.505169 -47.616527 -2.036935 -5.486153 -5.756086 0.000000 0.000000 0.000000 6.146003 -77.447317 6.745737 -33.171148 6.445041 -27.382119 48.614179 21.924205 -6.996671 -19.966304 -14.341401 43.511956 2.890301 7.320553 -11.631023 0.000000 0.000000 0.000000 6.806380 -74.006343 6.723680 -1.405899 4.174512 1.938419 4.412668 -0.398357 -2.310949 0.167007 -0.595595 0.134065 0.000000 0.000000 0.000000 9.652481 0.819555 -0.478234 -10.948052 23.183776 10.230930 10.918833 -6.318319 -18.724260 0.000000 0.000000 0.000000 7.194147 -0.581187 -1.364118 4.158009 0.378355 -13.779890 6.091159 -6.385394 0.608930 -56.331504 -12.319185 -19.882751 11.330106 -17.743648 13.702653 0.000000 0.000000 0.000000 5.453780 -1.201950 -1.399532 -6.174850 12.871683 2.894624 11.091840 -2.256097 5.600029 -10.069754 68.032591 28.174998 94.372997 79.522854 -93.825243 0.000000 0.000000 0.000000 
0.270604 27.542065 -3.280307 0.000000 0.000000 0.000000 10.502221 -78.340917 10.951489 -35.586542 14.426309 54.911101 34.101792 -19.112818 -2.540513 13.164278 22.077509 -47.924965 -2.399005 -5.353424 -6.103912 0.000000 0.000000 0.000000 7.141917 -77.522265 8.062519 -33.457723 5.933254 -27.737323 47.572951 21.500380 -6.530127 -18.982421 -13.114709 43.051092 3.444149 7.514811 -12.244155 0.000000 0.000000 0.000000 6.670132 -74.564178 6.654209 -1.521458 4.222840 1.897350 4.443732 -0.674992 -1.888377 0.202463 -0.593143 0.122079 0.000000 0.000000 0.000000 9.266877 0.451185 -0.069513 -9.701998 23.175658 9.849689 6.945928 -2.709840 -22.292631 0.000000 0.000000 0.000000 6.565064 -0.834702 -1.329528 3.825421 -0.865943 -16.504198 7.373928 -6.492115 2.588732 -50.217275 -11.897807 -22.694267 12.232476 -24.273895 13.747179 0.000000 0.000000 0.000000 5.374371 -1.346987 -1.008869 -6.660002 9.950577 3.684684 9.599464 -0.561521 4.870517 -6.805522 67.390212 28.458277 64.330164 79.327531 -62.932079 0.000000 0.000000 0.000000 
0.118901 27.934809 -3.234793 0.000000 0.000000 0.000000 10.470573 -78.044685 11.286905 -33.323141 15.073555 52.836431 31.693693 -17.566130 -1.720107 13.470974 23.503827 -48.496071 -2.267031 -5.215158 -6.466997 0.000000 0.000000 0.000000 7.587876 -77.326470 8.972321 -32.867850 5.251141 -28.053339 46.252935 20.662625 -6.301147 -17.732662 -12.117801 43.079646 2.737743 7.810161 -12.799696 0.000000 0.000000 0.000000 5.893316 -74.778093 6.075737 -1.211066 4.200025 1.833273 4.574027 -1.034081 -1.427487 0.201401 -0.684445 0.085842 0.000000 0.000000 0.000000 8.854508 0.066833 0.233866 -8.371718 23.021520 9.287842 2.987027 1.019261 -24.949035 0.000000 0.000000 0.000000 6.330802 -1.180409 -1.332984 3.393200 -2.935522 -18.364736 8.894112 -6.227732 3.917268 -43.503268 -13.323922 -25.336938 14.007919 -32.968463 14.377232 0.000000 0.000000 0.000000 5.511612 -1.518593 -0.595954 -7.103737 6.780179 5.097158 7.941986 0.871900 4.126172 -4.008773 66.429600 29.092535 35.951182 74.812701 -33.420245 0.000000 0.000000 0.000000 
0.042090 28.337662 -3.154580 0.000000 0.000000 0.000000 9.318411 -77.247575 10.635647 -31.821056 15.575094 50.796475 29.012786 -16.297528 -0.627224 14.216792 23.861532 -49.860716 -1.784810 -5.163808 -6.854846 0.000000 0.000000 0.000000 7.472437 -76.731725 9.338694 -31.325071 4.557428 -28.260898 44.558180 19.378679 -6.231076 -16.573616 -11.666421 43.122994 1.975356 8.064826 -13.095435 0.000000 0.000000 0.000000 4.702727 -74.524064 5.367424 -0.530820 3.950154 1.726866 4.729770 -1.505362 -0.981640 0.126044 -0.863347 0.037020 0.000000 0.000000 0.000000 8.481025 -0.342513 0.422276 -6.834032 22.774854 8.472725 -0.552731 4.249856 -26.375095 0.000000 0.000000 0.000000 6.467292 -1.635957 -1.321912 2.859807 -5.649584 -18.593913 9.625630 -5.698921 3.300157 -37.317654 -17.432857 -26.849088 17.014037 -43.326946 16.187403 0.000000 0.000000 0.000000 5.757277 -1.752768 -0.171496 -7.392741 3.910495 6.969947 6.084653 1.540179 4.024311 -2.126596 65.040592 29.950195 21.497783 66.735285 -17.770965 0.000000 0.000000 0.000000 
